<svg width="136" height="20" viewBox="0 0 136 20" fill="none" xmlns="http://www.w3.org/2000/svg">
<path d="M0 0.265678H7.55556C9.26923 0.187253 10.9857 0.343212 12.6556 0.72907C13.6483 0.993625 14.5224 1.5765 15.1385 2.3849C15.7546 3.19329 16.0775 4.18073 16.0556 5.18999C16.0744 5.8267 15.9497 6.45963 15.6904 7.04356C14.8026 9.00216 12.92 9.38523 11.8685 9.60148C13.0585 9.79302 14.6389 10.0402 15.7219 11.2326C16.4317 12.0309 16.8152 13.0587 16.7985 14.118C16.7826 15.1201 16.4666 16.0954 15.8901 16.9227C15.3135 17.7499 14.5018 18.3925 13.5559 18.7705C12.0889 19.3883 10.5085 19.481 8.26074 19.481H0V0.265678ZM4.65926 3.85542V7.82824H8.34259C9.45704 7.82824 11.2578 7.74791 11.2578 5.7646C11.2578 3.91103 9.62074 3.83071 8.6763 3.83071L4.65926 3.85542ZM4.65926 11.3377V15.9901H8.06556C9.70259 15.9901 11.8433 15.9098 11.8433 13.704C11.8433 11.3933 9.90407 11.3624 8.90926 11.3377H4.65926ZM23.737 6.74081C24.896 5.73822 26.3737 5.16166 27.9178 5.10967V8.81681L26.5074 9.03923C24.4548 9.39141 23.8441 9.65709 23.8441 11.5107V19.5428H19.5752V5.3321H23.737V6.74081ZM44.5841 12.3448C44.5841 15.9345 42.4748 19.8826 36.8207 19.8826C32.747 19.8826 29.0322 17.5965 29.0322 12.3448C29.0322 8.01977 31.8341 4.53506 37.3748 4.83781C43.2807 5.1591 44.5841 9.76213 44.5841 12.3448ZM34.0504 9.5397C33.5459 10.3806 33.2948 11.3447 33.3263 12.32C33.3263 14.5752 34.4344 16.5585 36.8207 16.5585C39.207 16.5585 40.2585 14.7359 40.2585 12.5054C40.2585 10.9299 39.8681 9.70652 39.0685 8.94656C38.7349 8.63943 38.3358 8.40909 37.9002 8.27229C37.4645 8.13549 37.0033 8.09566 36.55 8.1557C36.0462 8.15091 35.5501 8.27628 35.1113 8.51921C34.6726 8.76214 34.3067 9.11409 34.0504 9.5397ZM61.9115 12.3448C61.9115 15.9345 59.8085 19.8826 54.1481 19.8826C50.0744 19.8826 46.3596 17.5965 46.3596 12.3448C46.3596 8.01977 49.1615 4.53506 54.7022 4.83781C60.6081 5.1591 61.9115 9.76213 61.9115 12.3448ZM51.3778 9.5397C50.8752 10.3811 50.6263 11.3453 50.66 12.32C50.66 14.5752 51.7681 16.5585 54.1481 16.5585C56.5281 16.5585 57.5859 14.7359 57.5859 12.5054C57.5859 10.9299 57.2019 9.70652 56.3959 8.94656C56.0629 8.63869 55.6638 8.40787 55.228 8.27102C54.7922 8.13418 54.3307 8.09477 53.8774 8.1557C53.3739 8.15216 52.8782 8.27806 52.4397 8.52087C52.0011 8.76368 51.635 9.11494 51.3778 9.5397ZM64.6567 0.271857H68.8437V10.1576L73.5281 5.28885H78.6596L73.6667 10.3306L79.2893 19.4748H74.3593L70.6444 13.3519L68.8122 15.0386V19.4748H64.6504L64.6567 0.271857ZM81.5433 3.8616C81.4926 3.00977 81.7126 2.1635 82.173 1.4396C82.7018 0.735249 83.8919 0 85.8878 0C86.7422 0.0267218 87.5939 0.107208 88.4378 0.240964V3.36732H87.4178C85.8059 3.36732 85.7241 3.69478 85.7493 5.59778H88.6078V8.1557H85.7807V19.4748H81.537V8.1557H79.2641V5.59778H81.5622L81.5433 3.8616ZM90.7233 0.240964H94.9356V3.50324H90.7233V0.240964ZM90.7233 5.25178H94.9356V19.4625H90.7233V5.25178ZM112.294 15.8604C111.803 16.6355 111.215 17.3475 110.544 17.9796C109.051 19.3063 107.099 20.0263 105.085 19.9938C100.785 19.9938 97.7626 17.3 97.7626 12.6475C97.7626 9.21841 99.4815 4.8131 105.199 4.8131C106.164 4.78401 107.125 4.95061 108.022 5.30249C108.919 5.65437 109.733 6.18397 110.412 6.8582C112.301 8.84152 112.401 11.6157 112.458 13.2221H102.12C102.088 14.9892 103.114 16.7563 105.419 16.7563C107.723 16.7563 108.567 15.261 109.077 14.2539L112.294 15.8604ZM108.051 10.6086C108.015 9.86846 107.732 9.16048 107.245 8.59438C106.672 8.0841 105.921 7.80974 105.148 7.82824C104.743 7.82701 104.342 7.90818 103.97 8.06663C103.598 8.22507 103.264 8.45736 102.989 8.74884C102.53 9.2755 102.231 9.91761 102.126 10.6024L108.051 10.6086ZM119.201 0.265678V19.4748H114.926V0.265678H119.201ZM136 0.265678V19.4748H132.121V18.1403C131.634 18.6853 131.032 19.1204 130.357 19.4158C129.682 19.7112 128.95 19.8599 128.211 19.8517C126.688 19.8467 125.225 19.262 124.131 18.2206C122.029 16.2373 122.029 13.3766 122.029 12.4498C122.029 7.09299 125.133 4.88724 128.041 4.88724C129.452 4.90542 130.81 5.41824 131.87 6.33302V0.265678H136ZM131.951 12.3695C131.951 11.7207 131.951 9.94748 131.039 8.86006C130.839 8.61174 130.587 8.40828 130.3 8.26334C130.013 8.11841 129.698 8.03536 129.376 8.01977C126.354 8.01977 126.354 11.7269 126.354 12.3448C126.354 14.3343 126.908 16.7563 129.068 16.7563C129.563 16.7445 130.044 16.5921 130.453 16.3176C131.951 15.3352 131.951 13.1603 131.951 12.3695Z" fill="white"/>
</svg>
